<svg width="48" height="48" viewBox="0 0 48 48" fill="none" xmlns="http://www.w3.org/2000/svg">
<path fill-rule="evenodd" clip-rule="evenodd" d="M24 48C37.2548 48 48 37.2548 48 24C48 10.7452 37.2548 0 24 0C10.7452 0 0 10.7452 0 24C0 37.2548 10.7452 48 24 48Z" fill="#171F26"/>
<path d="M23.9999 20C23.7347 20 23.4804 20.1054 23.2928 20.2929C23.1053 20.4804 22.9999 20.7348 22.9999 21C22.9999 21.2652 23.1053 21.5196 23.2928 21.7071C23.4804 21.8946 23.7347 22 23.9999 22C24.5304 22 25.0391 22.2107 25.4142 22.5858C25.7892 22.9609 25.9999 23.4696 25.9999 24C25.9999 24.5304 25.7892 25.0391 25.4142 25.4142C25.0391 25.7893 24.5304 26 23.9999 26C23.7347 26 23.4804 26.1054 23.2928 26.2929C23.1053 26.4804 22.9999 26.7348 22.9999 27C22.9999 27.2652 23.1053 27.5196 23.2928 27.7071C23.4804 27.8946 23.7347 28 23.9999 28C25.0608 28 26.0782 27.5786 26.8284 26.8284C27.5785 26.0783 27.9999 25.0609 27.9999 24C27.9999 22.9391 27.5785 21.9217 26.8284 21.1716C26.0782 20.4214 25.0608 20 23.9999 20ZM33.7099 23.29L31.3599 21V17.64C31.3599 17.3748 31.2546 17.1204 31.067 16.9329C30.8795 16.7454 30.6252 16.64 30.3599 16.64H27.0499L24.7099 14.29C24.617 14.1963 24.5064 14.1219 24.3845 14.0711C24.2627 14.0203 24.132 13.9942 23.9999 13.9942C23.8679 13.9942 23.7372 14.0203 23.6154 14.0711C23.4935 14.1219 23.3829 14.1963 23.2899 14.29L20.9999 16.64H17.6399C17.3747 16.64 17.1204 16.7454 16.9328 16.9329C16.7453 17.1204 16.6399 17.3748 16.6399 17.64V21L14.2899 23.29C14.1962 23.383 14.1218 23.4936 14.071 23.6154C14.0203 23.7373 13.9941 23.868 13.9941 24C13.9941 24.132 14.0203 24.2627 14.071 24.3846C14.1218 24.5064 14.1962 24.617 14.2899 24.71L16.6399 27.05V30.36C16.6399 30.6252 16.7453 30.8796 16.9328 31.0671C17.1204 31.2546 17.3747 31.36 17.6399 31.36H20.9999L23.3399 33.71C23.4329 33.8037 23.5435 33.8781 23.6654 33.9289C23.7872 33.9797 23.9179 34.0058 24.0499 34.0058C24.182 34.0058 24.3127 33.9797 24.4345 33.9289C24.5564 33.8781 24.667 33.8037 24.7599 33.71L27.0999 31.36H30.4099C30.6752 31.36 30.9295 31.2546 31.117 31.0671C31.3046 30.8796 31.4099 30.6252 31.4099 30.36V27.05L33.7599 24.71C33.8505 24.6138 33.921 24.5006 33.9676 24.3769C34.0141 24.2533 34.0356 24.1216 34.031 23.9896C34.0264 23.8575 33.9956 23.7277 33.9405 23.6077C33.8854 23.4876 33.807 23.3796 33.7099 23.29ZM29.6599 25.93C29.5655 26.0226 29.4903 26.1331 29.4388 26.2549C29.3873 26.3768 29.3605 26.5077 29.3599 26.64V29.36H26.6399C26.5076 29.3605 26.3767 29.3873 26.2549 29.4388C26.133 29.4903 26.0226 29.5655 25.9299 29.66L23.9999 31.59L22.0699 29.66C21.9773 29.5655 21.8669 29.4903 21.745 29.4388C21.6231 29.3873 21.4922 29.3605 21.3599 29.36H18.6399V26.64C18.6394 26.5077 18.6126 26.3768 18.5611 26.2549C18.5096 26.1331 18.4344 26.0226 18.3399 25.93L16.4099 24L18.3399 22.07C18.4344 21.9774 18.5096 21.8669 18.5611 21.7451C18.6126 21.6232 18.6394 21.4923 18.6399 21.36V18.64H21.3599C21.4922 18.6394 21.6231 18.6127 21.745 18.5612C21.8669 18.5097 21.9773 18.4345 22.0699 18.34L23.9999 16.41L25.9299 18.34C26.0226 18.4345 26.133 18.5097 26.2549 18.5612C26.3767 18.6127 26.5076 18.6394 26.6399 18.64H29.3599V21.36C29.3605 21.4923 29.3873 21.6232 29.4388 21.7451C29.4903 21.8669 29.5655 21.9774 29.6599 22.07L31.5899 24L29.6599 25.93Z" fill="#A3ABB2"/>
</svg>
