<svg width="12" height="12" viewBox="0 0 12 12" fill="none" xmlns="http://www.w3.org/2000/svg">
<path d="M10.6667 10.6667H1.33341C1.1566 10.6667 0.987035 10.7281 0.86201 10.8375C0.736986 10.9469 0.666748 11.0953 0.666748 11.25C0.666748 11.4047 0.736986 11.5531 0.86201 11.6625C0.987035 11.7719 1.1566 11.8333 1.33341 11.8333H10.6667C10.8436 11.8333 11.0131 11.7719 11.1382 11.6625C11.2632 11.5531 11.3334 11.4047 11.3334 11.25C11.3334 11.0953 11.2632 10.9469 11.1382 10.8375C11.0131 10.7281 10.8436 10.6667 10.6667 10.6667ZM5.52675 9.33084C5.59015 9.38395 5.66491 9.42558 5.74675 9.45334C5.82655 9.4842 5.91283 9.50014 6.00008 9.50014C6.08733 9.50014 6.17361 9.4842 6.25341 9.45334C6.33525 9.42558 6.41001 9.38395 6.47341 9.33084L9.14008 6.99751C9.26562 6.88766 9.33614 6.73868 9.33614 6.58334C9.33614 6.428 9.26562 6.27902 9.14008 6.16917C9.01454 6.05933 8.84428 5.99762 8.66675 5.99762C8.48921 5.99762 8.31895 6.05933 8.19341 6.16917L6.66675 7.51084V0.750005C6.66675 0.595295 6.59651 0.446922 6.47149 0.337526C6.34646 0.22813 6.17689 0.166672 6.00008 0.166672C5.82327 0.166672 5.6537 0.22813 5.52868 0.337526C5.40365 0.446922 5.33341 0.595295 5.33341 0.750005V7.51084L3.80675 6.16917C3.74459 6.11478 3.6708 6.07164 3.58958 6.0422C3.50837 6.01277 3.42132 5.99762 3.33341 5.99762C3.24551 5.99762 3.15846 6.01277 3.07725 6.0422C2.99603 6.07164 2.92224 6.11478 2.86008 6.16917C2.79792 6.22356 2.74862 6.28813 2.71497 6.35919C2.68133 6.43026 2.66402 6.50642 2.66402 6.58334C2.66402 6.66026 2.68133 6.73642 2.71497 6.80748C2.74862 6.87855 2.79792 6.94312 2.86008 6.99751L5.52675 9.33084Z" fill="#3D3D3D"/>
</svg>
