<svg width="20" height="20" viewBox="0 0 20 20" fill="none" xmlns="http://www.w3.org/2000/svg">
<path d="M10 0.246696C7.6255 0.246795 5.32849 1.09181 3.51999 2.63054C1.71149 4.16928 0.509528 6.30132 0.12916 8.64518C-0.251207 10.989 0.214845 13.3918 1.44393 15.4235C2.67301 17.4551 4.58491 18.9832 6.83755 19.7342C7.33755 19.8217 7.52505 19.5217 7.52505 19.2592C7.52505 19.0217 7.51254 18.2342 7.51254 17.3967C5.00003 17.8592 4.35003 16.7842 4.15003 16.2217C3.9281 15.6747 3.5763 15.1898 3.12503 14.8092C2.77503 14.6217 2.27503 14.1592 3.11252 14.1467C3.4323 14.1814 3.73901 14.2927 4.00666 14.4711C4.2743 14.6495 4.49499 14.8898 4.65003 15.1717C4.7868 15.4174 4.97071 15.6337 5.19122 15.8082C5.41173 15.9827 5.6645 16.112 5.93506 16.1886C6.20562 16.2652 6.48864 16.2877 6.76791 16.2548C7.04717 16.2219 7.3172 16.1342 7.56251 15.9967C7.6058 15.4883 7.83237 15.013 8.20003 14.6592C5.97503 14.4092 3.65003 13.5467 3.65003 9.72173C3.63597 8.72787 4.00271 7.7663 4.67503 7.03423C4.36931 6.17045 4.40508 5.22251 4.77503 4.38423C4.77503 4.38423 5.6125 4.12172 7.52503 5.40923C9.16131 4.9592 10.8887 4.9592 12.525 5.40923C14.4375 4.10923 15.275 4.38423 15.275 4.38423C15.645 5.2225 15.6808 6.17045 15.375 7.03423C16.0494 7.76505 16.4164 8.72746 16.4 9.72173C16.4 13.5592 14.0625 14.4092 11.8375 14.6592C12.0762 14.9011 12.26 15.1915 12.3764 15.5107C12.4929 15.8299 12.5393 16.1705 12.5125 16.5092C12.5125 17.8467 12.5 18.9217 12.5 19.2592C12.5 19.5217 12.6875 19.8342 13.1875 19.7342C15.4362 18.9771 17.3426 17.4455 18.5664 15.4127C19.7903 13.38 20.2519 10.9785 19.8689 8.63693C19.4859 6.29534 18.2832 4.16607 16.4755 2.62921C14.6678 1.09235 12.3727 0.247931 10 0.246696Z" fill="#A3ABB2"/>
</svg>
